<?xml version="1.0" encoding="UTF-8" standalone="no"?>
<!-- Created with Inkscape (http://www.inkscape.org/) -->

<svg
   version="1.1"
   id="svg9"
   width="1866.6667"
   height="1866.6667"
   viewBox="0 0 1866.6667 1866.6667"
   sodipodi:docname="Yoda Pumpkin Template.svg"
   inkscape:version="1.1 (c68e22c387, 2021-05-23)"
   xmlns:inkscape="http://www.inkscape.org/namespaces/inkscape"
   xmlns:sodipodi="http://sodipodi.sourceforge.net/DTD/sodipodi-0.dtd"
   xmlns="http://www.w3.org/2000/svg"
   xmlns:svg="http://www.w3.org/2000/svg"
   xmlns:rdf="http://www.w3.org/1999/02/22-rdf-syntax-ns#"
   xmlns:cc="http://creativecommons.org/ns#"
   xmlns:dc="http://purl.org/dc/elements/1.1/">
  <title
     id="title443">Joda</title>
  <defs
     id="defs13" />
  <sodipodi:namedview
     id="namedview11"
     pagecolor="#ffffff"
     bordercolor="#cccccc"
     borderopacity="1"
     inkscape:pageshadow="0"
     inkscape:pageopacity="1"
     inkscape:pagecheckerboard="0"
     showgrid="false"
     inkscape:zoom="0.29660603"
     inkscape:cx="611.92283"
     inkscape:cy="989.5281"
     inkscape:window-width="1920"
     inkscape:window-height="1001"
     inkscape:window-x="-9"
     inkscape:window-y="-9"
     inkscape:window-maximized="1"
     inkscape:current-layer="g15" />
  <g
     inkscape:groupmode="layer"
     inkscape:label="Image"
     id="g15">
    <g
       id="g331"
       transform="matrix(0.99999973,0,0,1.0006337,2.5813251e-4,-0.02854665)"
       style="fill:#ffffff">
      <path
         style="fill:#ffffff;stroke:#000000;stroke-width:1px;stroke-linecap:butt;stroke-linejoin:miter;stroke-opacity:1"
         d="m 443.42275,379.05493 c 14.30396,-2.38399 25.62793,-1.48999 25.62793,-1.48999 l 14.89996,-0.298 21.45594,1.78799 26.81992,4.76799 33.67391,7.74798 34.2699,8.93997 20.26395,6.55599 17.58195,2.97999 20.56194,0.298 16.68795,-1.49 19.66795,-7.74798 0.89399,6.25798 0.298,4.17199 1.49,7.15198 3.87399,8.04598 4.46998,7.74798 11.62197,16.09195 c 0,0 -0.298,0.894 4.76799,5.06599 5.06598,4.17199 12.81396,8.64197 12.81396,8.64197 l -7.44998,0.894 -8.04597,2.384 -7.74798,4.76798 -8.34398,9.53598 -5.95998,11.32396 -2.68199,8.04598 -2.086,8.64198 -0.298,14.00596 2.086,13.11196 1.19199,6.25798 0.298,6.25798 -1.48999,8.64198 -2.682,9.83397 -4.17198,11.91997 -21.45594,50.36186 -8.64198,15.49595 -5.95998,14.00596 -5.06599,14.00597 -3.57599,9.23797 c 0,0 -1.78799,5.36398 -4.76798,5.06599 -2.98,-0.298 -20.56195,-2.682 -20.56195,-2.682 0,0 -16.09195,0 -21.45594,7.15198 -5.36398,7.15198 -5.36398,4.76799 -6.55598,7.74798 -1.19199,2.97999 -2.68199,15.19796 -2.68199,15.19796 l -2.38399,8.93997 -10.42997,16.68796 -11.32397,12.06896 -21.30694,14.60196 -12.36697,6.25798 -11.91996,2.235 -16.53896,-1.49 c 0,0 -9.23797,-0.745 -17.13495,3.57599 -7.89698,4.32099 -20.71094,14.89996 -24.43593,21.45594 -3.72499,6.55598 3.72499,15.79396 3.72499,15.79396 l 5.81098,10.13197 c 0,0 4.32099,15.64495 -3.12899,18.92295 -7.44998,3.27799 -36.81413,20.52631 -36.81413,20.52631 l -18.75383,16.01451 -25.91822,22.96818 -19.80742,19.5967 c 0,0 -13.06447,26.12894 -8.42869,36.24336 4.63578,10.11443 29.92185,51.62571 29.92185,51.62571 0,0 1.12866,1.5438 3.81065,2.8847 2.682,1.341 5.06599,2.831 7.30098,1.788 2.235,-1.043 4.17199,-4.0229 3.42699,-5.8109 -0.74499,-1.788 -5.95998,-11.77101 -5.36398,-11.17501 0.596,0.596 5.51298,2.98001 7.15198,1.34101 1.63899,-1.63901 3.27799,-2.68201 3.27799,-2.68201 0,0 -0.596,1.192 4.32099,2.08601 4.91698,0.894 8.49297,-1.19201 8.49297,-1.19201 l -15.94295,110.25971 -1.788,18.1779 v 31.5879 l 0.894,47.6799 2.97999,22.6479 3.27799,9.834 2.086,14.006 1.19199,14.8999 1.192,45.2959 -1.78799,47.3819 -1.788,69.1358 2.68199,44.6999 3.27799,7.7479 -9.53597,144.8276 14.00596,110.2597 5.06599,21.754 c 0,0 0.64776,2.823 2.96565,4.4034 2.31789,1.5804 8.74477,4.9518 10.9573,4.2143 2.21253,-0.7375 8.32333,-1.5803 6.74295,-5.1625 -1.58038,-3.5822 -5.16257,-13.4859 -5.16257,-13.4859 l -4.21435,-47.7275 -1.68573,-64.9009 24.02176,-205.2386 c 0,0 10.11443,-69.5367 5.05721,-87.6584 -5.05721,-18.1216 -5.47864,-21.0717 -5.47864,-21.0717 0,0 -0.84287,-5.4786 0,-13.0644 0.84286,-7.5859 11.80016,-35.4005 12.22159,-47.2007 0.42144,-11.8002 -2.10717,-30.3433 -2.10717,-30.3433 L 450.93487,1112.587 c 0,0 -8.42869,-161.40943 0.42143,-161.40943 8.85013,0 2.10718,-3.79291 2.10718,-3.79291 l 18.54311,49.72926 c 0,0 6.32152,11.80018 11.80017,20.22888 5.47864,8.4287 32.02901,37.9291 32.02901,37.9291 l 24.86464,21.4931 27.81467,16.436 22.75746,8.8501 32.45046,0.8429 -71.64386,560.0864 0.84287,2.1071 8.42869,-0.4214 18.96455,0.8429 24.02176,4.2143 45.93636,12.2216 c 0,0 -13.90734,-1.2643 -22.33603,4.6358 -8.42869,5.9001 -32.45045,16.8574 -32.45045,16.8574 0,0 -10.9573,0.4214 -20.22886,5.0572 -9.27156,4.6358 -10.53586,4.2143 -14.7502,7.5858 -4.21435,3.3715 -14.75021,13.0645 -16.43595,16.436 -1.68573,3.3714 -0.84287,4.2143 -0.84287,4.2143 l 5.05722,-0.8429 8.00725,-1.2643 c 0,0 7.58582,7.1644 13.90734,9.693 6.32152,2.5286 12.2216,6.3215 16.85738,6.743 4.63578,0.4214 18.12168,3.3714 31.18615,2.5286 13.06447,-0.8429 20.65029,-4.2144 20.65029,-4.2144 l 17.70024,5.0572 5.90009,10.9573 12.22159,-4.2143 c 0,0 8.42869,9.2716 13.06447,9.693 4.63578,0.4214 9.693,3.3715 18.96455,2.5286 9.27156,-0.8429 19.80742,-4.6358 22.75746,-2.95 2.95005,1.6857 10.11443,5.4786 17.27882,4.6357 7.16438,-0.8428 20.65029,-3.3714 20.65029,-3.3714 0,0 -1.26431,2.1071 11.37873,1.2643 12.64303,-0.8429 38.77197,-3.3715 41.30057,-6.3216 2.52861,-2.95 6.74295,-9.2715 12.64304,-8.8501 5.90008,0.4215 4.21434,-2.1072 4.21434,-2.1072 0,0 2.52861,-0.4214 5.47865,2.9501 2.95004,3.3715 6.32152,5.9001 13.06447,7.1644 6.74295,1.2643 26.55037,0.8428 29.92184,-0.4215 3.37148,-1.2643 12.2216,-0.8428 16.85738,-4.2143 4.63578,-3.3715 1.2643,-3.7929 3.37148,-5.9001 2.10717,-2.1072 14.7502,-10.1144 20.65029,-8.4287 5.90008,1.6858 3.37147,3.7929 10.53586,4.6358 7.16438,0.8429 23.60033,1.2643 23.60033,1.2643 l 4.00362,2.3179 c 0,0 6.74296,2.1072 9.06084,1.8964 2.31789,-0.2107 7.58583,0 12.01089,-1.8964 4.42506,-1.8965 6.53223,-0.8429 11.58944,-6.9537 5.05718,-6.1108 5.26798,-6.7429 5.26798,-6.7429 0,0 1.2643,4.0036 5.9,4.0036 4.6358,0 105.9908,3.1608 119.0553,-2.95 13.0644,-6.1108 2.3179,-0.4215 2.3179,-0.4215 l -1.0536,7.3751 -11.3788,29.5004 c 0,0 -3.3018,1.0742 -2.7058,9.4182 0.596,8.3439 4.172,17.8799 6.5559,20.5619 2.384,2.682 13.708,11.92 16.39,13.112 2.682,1.192 5.96,2.98 9.238,2.682 3.278,-0.298 5.662,0 9.5359,-2.384 3.874,-2.384 10.728,-11.324 10.728,-11.324 0,0 -1.49,-2.086 1.49,-0.298 2.98,1.788 10.43,2.682 15.794,2.086 5.364,-0.596 35.7599,-6.258 35.7599,-6.258 0,0 -0.596,0.298 5.364,3.576 5.9599,3.278 33.9719,12.516 37.2498,11.92 3.278,-0.596 8.642,-0.596 8.642,-0.596 0,0 -1.788,0.894 0.596,2.98 2.384,2.086 14.006,10.4299 17.88,10.7279 3.874,0.298 10.1319,2.086 15.1979,0.298 5.066,-1.788 17.582,-11.6219 22.052,-15.4959 4.47,-3.874 8.6419,-10.43 8.6419,-10.43 l 67.3479,3.278 c 0,0 2.0859,1.788 7.4499,2.98 5.364,1.192 11.026,1.788 16.986,0 5.96,-1.788 11.026,-5.066 12.814,-8.046 1.7879,-2.98 3.2779,-11.026 2.6819,-14.3039 -0.596,-3.278 -2.9799,-14.602 -4.4699,-17.284 -1.49,-2.682 -16.688,-21.7539 -16.688,-21.7539 l -0.745,-1.788 c 0,0 1.043,0.894 3.129,1.49 2.086,0.596 14.602,2.235 16.5389,1.192 1.937,-1.043 8.046,-0.894 10.132,-4.768 2.086,-3.874 4.768,-6.258 5.215,-10.132 0.447,-3.874 -0.298,-8.344 -1.043,-9.536 -0.745,-1.192 -14.7509,-16.8369 -14.7509,-16.8369 l -50.3392,-60.6548 c 0,0 -5.9,-4.6358 -10.9573,-11.3788 -5.0572,-6.7429 -20.6502,-40.4577 -21.4931,-44.672 -0.8429,-4.2144 -6.743,-20.6503 -5.9001,-27.8147 0.8429,-7.1644 -0.8429,-27.3932 -1.2643,-38.772 -0.4214,-11.3787 -6.743,-61.9508 -8.8501,-71.6438 -2.1072,-9.693 -25.2861,-115.8945 -29.5004,-130.6447 -4.2144,-14.7502 -19.8075,-69.1152 -23.6004,-79.6511 -3.7929,-10.5359 -14.7502,-50.5721 -14.7502,-50.5721 l -12.643,-79.2297 -8.8501,-115.8945 -7.1644,-151.29496 c 0,0 12.2216,46.35779 15.1716,53.10074 2.9501,6.74295 26.9718,43.40775 34.5577,50.99357 7.5858,7.58582 45.0934,32.87188 52.6793,36.66479 7.5858,3.79291 37.0862,15.17166 47.6221,16.43596 10.5358,1.2643 26.5503,-1.2643 34.979,-6.3215 8.4287,-5.05724 21.0717,-17.70028 24.0218,-23.60036 2.95,-5.90008 11.3787,-27.39324 11.3787,-34.13619 0,-6.74295 -12.8537,-105.56933 -12.8537,-105.56933 l -11.5895,-48.67568 c 0,0 -9.2964,-42.03715 -5.1244,-62.30109 4.172,-20.26394 8.9399,-47.67986 8.3439,-55.42784 -0.596,-7.74798 -4.7679,-70.9238 -4.7679,-70.9238 0,0 -1.788,-2.384 2.3839,-7.15198 4.172,-4.76799 5.96,-10.72797 14.304,-14.30396 8.344,-3.57599 22.6479,-10.72797 26.0749,-11.62197 3.427,-0.894 12.814,-2.97999 15.347,-4.76799 2.533,-1.78799 6.705,-7.30098 7.599,-9.23797 0.894,-1.93699 1.639,-8.79098 1.192,-11.17497 -0.447,-2.38399 -0.745,-7.44998 -1.49,-9.68497 -0.745,-2.235 -7.152,-16.68795 -7.152,-16.68795 0,0 -4.321,-7.59898 -6.556,-8.64198 -2.235,-1.043 -10.281,-3.12899 -11.622,-3.27799 -1.341,-0.149 -7.8969,0 -11.4729,0.447 -3.576,0.447 -15.198,3.12899 -17.88,4.32099 -2.682,1.19199 -9.089,4.02298 -12.5159,6.10898 -3.427,2.08599 -9.983,6.55598 -9.983,6.55598 0,0 -1.341,2.23499 -3.576,2.23499 -2.235,0 -8.493,-0.149 -10.132,-1.48999 -1.639,-1.341 -4.47,-3.57599 -4.47,-3.57599 0,0 -1.043,-0.447 -2.682,-3.27799 -1.639,-2.83099 -1.9369,-4.02299 -1.639,-5.66199 0.298,-1.63899 -0.7449,-6.10898 -0.2979,-7.74798 0.4469,-1.63899 2.3839,-8.19497 2.3839,-8.19497 l 4.023,-8.64198 5.662,-9.08897 10.281,-13.11197 c 0,0 3.725,-6.40698 3.576,-8.64197 -0.149,-2.23499 -1.937,-13.26096 -1.937,-13.26096 0,0 -1.937,-4.76799 -3.874,-7.30098 -1.937,-2.533 -12.218,-10.28097 -15.347,-11.77097 -3.129,-1.49 -12.9629,-4.91699 -15.6449,-4.91699 -2.682,0 -12.516,1.341 -14.751,2.533 -2.235,1.19199 -11.0259,8.19497 -12.5159,10.13197 -1.49,1.93699 -7.599,11.91996 -9.387,15.19796 -1.788,3.27799 -6.109,17.28395 -6.854,19.07194 -0.745,1.788 -0.149,5.06599 -2.086,6.25798 -1.937,1.192 -25.7769,18.32695 -25.7769,18.32695 0,0 -5.662,-4.76798 -11.92,-5.66198 -6.258,-0.894 -25.0319,-2.68199 -25.0319,-2.68199 0,0 -2.682,0.298 -4.172,-2.086 -1.49,-2.38399 -2.086,-1.48999 -1.49,-7.44998 0.596,-5.95998 2.086,-2.38399 -1.192,-10.42997 -3.278,-8.04598 -15.794,-29.79991 -20.2639,-33.6739 -4.47,-3.87399 -36.0579,-30.99192 -40.5279,-32.77991 -4.47,-1.788 -45.8919,-20.56194 -45.8919,-20.56194 0,0 -2.682,-2.682 -12.218,-6.55598 -9.5359,-3.87399 -23.5419,-5.66199 -30.0979,-6.25799 -6.556,-0.596 -43.5079,-1.19199 -43.5079,-1.19199 0,0 2.086,-1.49 -1.192,2.38399 -3.2779,3.87399 -30.9919,17.58195 -30.9919,17.58195 0,0 -5.3639,-7.15198 -2.682,-13.70796 2.682,-6.55598 9.536,-33.37591 9.536,-37.2499 0,-3.87399 -0.894,-31.58791 -0.894,-31.58791 0,0 1.192,-4.17199 4.172,-7.44998 2.98,-3.27799 3.576,-5.36398 7.152,-5.95998 3.576,-0.596 9.834,0.596 16.3899,-0.894 6.556,-1.48999 14.006,-3.27799 21.456,-7.15198 7.45,-3.87399 23.5419,-13.11196 28.6079,-16.98595 5.066,-3.87399 13.112,-13.11196 19.0719,-21.45594 5.96,-8.34398 21.456,-34.2699 21.456,-34.2699 l 29.5019,-57.81184 c 0,0 -0.894,0 3.278,-5.06599 4.172,-5.06598 7.152,-7.74797 11.92,-10.42997 4.7679,-2.68199 2.682,-2.97999 10.4299,-3.57599 7.748,-0.596 10.132,0.298 14.006,-1.48999 3.874,-1.788 5.066,-2.384 3.278,-6.85398 -1.788,-4.46999 -10.43,-14.60196 -12.814,-15.79396 -2.384,-1.192 -7.748,-5.363984 -11.0259,-5.959982 -3.278,-0.595999 -7.152,-0.893998 -11.622,-0.893998 -4.47,0 -15.496,-0.297999 -19.966,1.191997 -4.4699,1.489996 -41.7198,14.005963 -44.9978,15.793953 -3.278,1.788 -18.774,12.21797 -18.774,12.21797 0,0 -10.132,3.57599 -16.9859,6.55598 -6.854,2.97999 -9.834,5.36398 -19.072,6.85398 -9.238,1.49 -31.2899,6.55598 -40.2299,7.74798 -8.9399,1.192 -22.9459,2.97999 -28.3099,2.97999 -5.364,0 -7.748,0 -7.748,0 0,0 1.49,6.55598 0,0 -1.49,-6.55598 -6.8539,-17.87995 -9.2379,-22.05194 -2.384,-4.17199 -14.9,-18.47595 -17.87999,-22.34993 -2.97999,-3.87399 -11.91997,-13.111968 -18.47595,-17.879955 -6.55598,-4.767986 -23.83993,-15.197957 -28.01192,-16.389954 -4.17199,-1.191996 -32.18391,-9.833972 -32.18391,-9.833972 0,0 9.83397,1.489996 -8.04598,-2.085994 -17.87995,-3.57599 -48.57386,-7.747978 -53.63984,-9.535973 -5.06599,-1.787995 -8.93998,-3.873989 -11.91997,-3.873989 -2.97999,0 -20.26394,0.297999 -20.26394,0.297999 0,0 1.48999,-0.595999 -2.98,1.787995 -4.46998,2.383993 -19.66794,8.939975 -19.66794,8.939975 l -40.52789,18.773947"
         id="path165" />
      <path
         style="fill:#ffffff;stroke:#000000;stroke-width:1px;stroke-linecap:butt;stroke-linejoin:miter;stroke-opacity:1"
         d="m 756.32187,75.095789 c -11.22575,3.501737 -20.91874,6.662496 -23.65807,8.348233 -2.73932,1.685738 -9.90371,5.478648 -12.01088,7.375103 -2.10717,1.896455 -3.16076,5.478648 -3.16076,5.478648 l -47.41137,87.869087 c 0,0 -2.31789,3.37147 -3.5822,6.32151 -1.2643,2.95005 -4.00362,7.58582 -5.26793,16.43595 -1.2643,8.85012 -1.47502,28.02539 -1.2643,30.76471 0.21072,2.73933 1.89645,25.28607 1.89645,25.28607 0,0 1.89646,-0.63215 -0.42143,2.10717 -2.31789,2.73933 -24.65392,17.27882 -24.65392,17.27882 l -26.9718,16.43594 -26.97181,10.74658 c 0,0 -3.16075,0.42143 -7.3751,1.2643 -4.21434,0.84287 -24.02176,4.00363 -28.44683,5.05722 -4.42506,1.05358 -24.65391,6.74295 -28.2361,8.21797 -3.5822,1.47502 -18.12169,7.16438 -21.9146,9.27156 -3.79291,2.10717 -33.0826,19.38598 -35.40049,21.70387 -2.31789,2.31789 -7.58582,7.16439 -11.16801,11.58945 -3.5822,4.42506 -3.6559,3.18612 -5.26793,7.79653 -1.61204,4.61042 -1.61204,4.61042 -1.61204,4.61042 v 0"
         id="path167" />
    </g>
  </g>
  <metadata
     id="metadata441">
    <rdf:RDF>
      <cc:Work
         rdf:about="">
        <dc:title>Joda</dc:title>
      </cc:Work>
    </rdf:RDF>
  </metadata>
</svg>
